<?xml version="1.0" encoding="UTF-8"?>
<svg width="350px" height="350px" style="*//* background:#fff;*//* display:block;/* margin:auto" preserveAspectRatio="xMidYMid" viewBox="0 0 100 100" xmlns="http://www.w3.org/2000/svg">
<defs>
<clipPath id="a">
<circle cx="50" cy="50" r="35"/>
</clipPath>
</defs>
<circle cx="50" cy="50" r="35" fill="#849b87"/>
<g clip-path="url(#a)" fill="#f8b26a">
<path transform="scale(2) translate(-25 -25)" d="m64.4 74.4c0.3 0.3 0.2 0.3-0.3 0.3 0-0.4 0.1-0.2 0.3-0.3zm-33 1c-0.2 0.1-0.3-0.2-0.5 0.1 0.3 0.2 0.6 0.1 0.8-0.1-0.1-0.2-0.1 0-0.3 0zm53.5-38.5c-0.3 0.2-0.8-0.1-1.1-0.5 0.1 0.2 0.1 0.6 0.3 0.9-0.5 0.2-0.2 0.6 0.2 0.7v-0.4c0.2 0.1 0.4 0.2 0.5 0.3 0.2-0.2 0.2-0.3 0.4-0.5-0.1-0.2-0.2-0.4-0.3-0.5zm0.2 3.7c0-0.6-0.1-2.1-0.6-2.4-0.6-0.4 0.5 2.1-0.6 1.6 0 0.2-0.1 0.5 0 0.7-0.8-0.3-0.9 0.5-1.4 0.9 0.3 0.3 0.4 0.6 0.6 0.9 0.3-0.4 0.2-0.9-0.3-1.2 0.2 0 0.4-0.2 0.6-0.2s0.6 0.2 0.6 0.2c0.2-0.1 0.5-0.4 1.1-0.5zm-1.4 0.4c-0.4-0.1-0.7 0.2-0.3 0.6 0.2-0.4 0-0.1 0.3-0.2 0.1-0.2-0.1-0.3 0-0.4zm9.8 21.8c0.1 0.5 0.3 0.9 0.7 0.8-0.1-0.3-0.4-0.6-0.7-0.8zm-0.5 8.4c-0.1-0.1-2.5 1.6-2.9 2.1 0.8 0.5 2.9-1.2 3.1-2.1-0.2 0.3-0.3 0-0.2 0zm2-1.3c-0.4 0.2-0.6 0-0.5-0.4 0 0.1-0.1 0.2-0.1 0.3 0.1-0.5 0.1-0.8-0.1-1.1-0.3 0.7 0.1 1.4-0.7 2 0.3 0.3 0.3 0.4-0.1 0.7 0.1 0 0.1 0.1 0.1 0.2 0.3-0.3 1.4-1.4 1.4-1.7zm-13-19.3c0.2-0.2 0.3-0.2 0.3-0.5-0.1 0-0.3-0.1-0.4-0.1 0 0.2 0 0.4 0.1 0.6zm0.4 0c-0.3-0.4-0.2 0.1-0.1 0.5 0.2-0.3 0.3-0.5 0.2-0.9 0 0.2-0.1 0.3-0.1 0.4zm0.4-0.9h-0.3c0 0.1 0.2 0.4 0.2 0.5h-0.2c0.1 0.2 0.1 0.3 0.2 0.5 0.1-0.2 0.1-0.2 0-0.5 0.1 0 0.2 0.1 0.2 0.1 0.1-0.2 0-0.4-0.1-0.6zm-1.8 1.3c0.2-0.3 0.3-0.4 0.2-0.8-0.1 0.5-0.4 0.8-0.6 1.2 0.2-0.1 0.3-0.3 0.4-0.4zm0.2-2.4c0.1 0.2 0.1 0.5 0.3 0.3 0 0.4 0.3 0.6 0.6 0.6 0 0 0-0.1 0.1-0.1 0.1 0.2 0.2 0.3 0.4 0.4 0-0.7-0.6-0.5-0.8-1-0.2-0.4 0.2-0.9 0-1.4-0.5-0.1-0.6 0.3-0.4 1l-0.1-0.1c-0.2 0-0.2 0.1-0.1 0.3zm2.1 3.6c0.1-0.5 0.1-1.1-0.3-1.4v0.3c-0.4 0.2-0.9 0.1-0.9 0.8 0.7-0.7 0.4 0.2 1 0.5 0-0.2 0.1-0.5 0.1-0.7 0 0.3 0.1 0.4 0.1 0.5zm-1.8-2.6c0.1-0.1 0.3-0.1-0.2-0.3 0.1 0.1 0.2 0.2 0.2 0.3zm10.3 7.8c0.1 0.1 0 0.2 0.2 0.1-0.1-0.2-0.2-0.5-0.3-0.7-0.1 0.2 0 0.3 0.1 0.6zm-1.6-0.1c0.4-0.1 1.1-0.5 0.6-0.9-0.1 0.4-0.2 0.6-0.4 0.3-0.1 0-0.5 0.2-0.5 0.3 0 0.2 0.1 0.2 0.3 0.3zm0.7-1.2c0.1 0.2 0.2 0.3 0.2 0.5 0.1-0.5-0.2-0.8-0.6-0.8 0.2 0.1 0.3 0.2 0.4 0.3zm-0.6 2.9c-0.2-0.4-0.7-0.7-1-1.6h0.3c-0.7-0.7-1.4-1.7-2.5-1.8-0.5-0.1-1 0.5-1.3 0.3-0.5-0.2-0.1-1.4-1.2-0.8 0.3 0.4 0.6 0.5 0.9 0.6-0.2 0-0.3 0.1-0.5 0.1 0.1 0.2 0.2 0.4 0.3 0.5 0.1 0 0.2-0.2 0.2-0.2 0.6 0.5 2 1 1 2 0.6-0.3 0.7 0.4 1.2 0.3 0.4-0.1 0.4-0.5 0.6-0.5 0.9 0 1.2 1 2 1.1zm2.9-0.5c-0.1 0.1-0.2-0.2-0.2 0.1 0.3 0.2 0.2 0 0.2-0.1zm-0.8-0.8s-0.1-0.2-0.2-0.3c0 0.2 0.1 0.2 0.2 0.3zm0.5 0.3 0.2 0.2c-0.2-0.2-0.3-0.3-0.5-0.4 0.1 0 0.2 0.1 0.3 0.2zm0.6 1.1c0.1-0.2 0.1-0.3 0 0zm0-0.4c0-0.2 0-0.4-0.2-0.6 0 0.2 0.1 0.4 0.2 0.6zm-12.5-12.8c0.1-0.5 0.2-1-0.1-1.3-0.3 0.4-0.3 0.9 0.1 1.3zm13.8 15.1s0.1-0.2 0-0.4c-0.1 0.2 0 0.5 0 0.4zm0 0.2c0.1 0.1 0 0.3 0.2 0.1-0.1-0.2-0.2-0.1-0.2-0.1zm-65.3 15.1c-0.4-0.8-0.5-0.2-0.7-0.2 0.2 0-0.3 0.2-0.3 0.2-0.2 0-0.6-0.3-0.9-0.4 0.9 0.9 1.9 1.2 2.6 0.7-0.2 0-0.4-0.2-0.7-0.3zm60.1-11.9c0-0.2-0.2-0.3-0.1-0.7-0.2 0-0.1-0.1-0.3 0 0.1-0.8-0.5-1.1-0.7-1.7-0.1-0.5 0-1-0.2-1.6l-0.2 0.2c0-0.5-0.1-1.1-0.2-1.6-0.5 0.9-0.5 3.8-1.7 2.2-0.3-0.5-0.4-0.2-0.4-0.8 0-0.3 0.4-0.5 0.4-0.7 0-0.1-1.1-0.4-1.4-0.5 0.3 0.3-0.7 0.7-0.8 1.5-0.5-0.2-0.7-0.4-1.1-0.2-0.4 0.1-0.7 0.9-0.7 1.1l-0.1 0.1c0-0.1 0-0.2-0.1-0.3-0.4 0.8-0.6 1.1-1.3 1.4-0.6 0.3-1.1 0.4-1.6 1v-0.3c-0.3 0.6-0.5 1.1-0.3 1.8-0.1-0.1-0.1-0.2-0.2-0.3v0.4c0-0.1-0.1-0.1-0.1-0.2 0.1 1 0.1 1.7 0 2.7 0 0.4-0.6 0.5 0 0.9 0.4 0.2 0.7-0.3 1-0.4 0.8-0.2 1.4-0.5 2.3-0.7 1.4-0.5 1.7-0.2 2.1 1.1 0.2-0.3 0.5-0.6 0.8-0.8-0.1 0.4-0.3 0.7-0.6 1 0.2-0.1 0.3-0.2 0.5-0.4-0.1 0.2-0.1 0.3-0.2 0.5 0.5 0.2 0.5 2.1 1.5 0.9 0 0.1-0.1 0.1-0.1 0.2 1.1 1.1 5-4.1 3.8-5.8zm-3.7 6.9c-0.4-0.2-1 0.2-0.7 0.8 0.2 0.6 0.9-0.4 1.1-0.9-0.1 0-0.2 0-0.4 0.1zm-61.3-27c0-0.2 0.2-0.3-0.1-0.5 0 0.2 0.1 0.4 0.1 0.5zm-0.4 0.6c0.1 0.1 0.1 0.2 0.1 0.4 0.1-0.2 0.1-0.3 0-0.6-0.2-0.1 0 0.1-0.1 0.2zm0.2-1c-0.2 0-0.3-0.1-0.3 0.2 0.2 0 0.3-0.2 0.3-0.2zm11.8 13c-1-0.3-1.6-1.5-2.7-1.1 0-0.7-0.8-0.9-1.2-0.6 0-0.4-0.4-0.5-0.5-0.8-0.1-0.1-0.1-0.7-0.2-1-0.3-0.7-0.6-0.8-1.2-1.1s-0.6-0.2-1.1-0.8c-0.3-0.4-0.6-0.7-1-1 0.1 0 0.2-0.1 0.3-0.1-0.9-0.2-1.7 0.6-2.3-0.6-0.4 0.3-0.4 0.8-0.6 1.2v-0.9c0.4-0.6-0.1-0.2-0.5 0.1-0.3 0.2-0.7 0.9-1 1l-1.6-0.3c-0.8-0.7 0.1-1.4-0.1-2.2s-1.1-0.3-1.6-0.5c0.2-0.3 0.3-0.7 0.3-1.1 0.1 0 0.1 0 0.1 0.1 0.2-1.2 0.5-1.7-0.7-0.8-0.6 0.5-1.3 1.5-1.8 0-0.3-0.8 0-2.4 0.4-3.1 0.7-1.1 1.6-0.5 2.3-0.6-0.1-0.7 1.4-0.4 1.6-0.3 0.2 0.3 0.2 2.8 0.8 1.6 0.5-1-0.4-1.7 0.5-2.7 0.6-0.7 2-1.1 1.3-2.2 0.1 0 0.1 0 0.2 0.1 0-0.2 0-0.3 0.1-0.4 0 0.4 0 0.4-0.1 0.8 0.3-0.4 0.3-0.4 0.3-0.9 0.1 0.1 0.1 0.1 0.1 0.2 0.2-0.3 0.4-0.5 0.4-0.7 0 0 0.4-0.1 0.6-0.1h-0.5c0.4-0.2 0.8-0.2 1.1-0.4h-0.2c-0.1-0.9 1.4-1.5 1.9-1.4-0.5 0.2-0.4 0.3-0.6 0.7 0.5-0.1 1.4-0.5 1.9-0.9 0-0.1-0.1-0.3-0.1-0.4-0.6 1.2-1.7-0.1-0.8-0.7-0.7-0.6-1.3 0.5-2 0.8 0.5-0.5 1.1-1.2 1.7-1.3 0.8-0.2 1.5 0.2 2.2-0.4 1.2-0.9 0.1-1.1-0.6-1.9 0.2-0.5-0.1-0.9-0.2-1.5-0.5 0.5-1.8 1-1.1-0.3-0.5 0-0.6-0.4-1.2-0.4-1 0-0.4 0.7-1.2 1.3 0.6 0.8-0.3 1.4-0.9 1.5 0.6 1.6-1.5 1.4-0.5-0.2-0.8 0-1.4-1-2.2-0.7 0-0.6 0.1-0.4-0.3-0.7 0.5-1.3 2.5-2.2 3.5-2.7 0.3-0.1 1.4-0.2 1.3-0.9-0.2-1-1.3 0.4-1.7 0.6 0.1-0.2 0-0.2 0.1-0.5-0.2 0-0.2-0.2-0.6 0 0.1-0.1 0.1-0.2 0.2-0.3-0.1 0-0.2 0-0.4-0.1 0.7-0.6-0.4-1-0.8-0.1 0.5 0.5-0.1 0.7-0.5 1 0.1-0.1 0.1-0.2 0.2-0.3-0.5-0.2-1 0.1-1.6 0-0.4-0.1-0.7-0.4-1.2-0.1l0.1 0.1c-0.4 0.1-1.1 0.1-1.7 0 0.1-0.1 0.3-0.1 0.4-0.2-0.6-0.3-1.5-0.7-2.1-0.3 0.1-0.1 0.1-0.2 0.2-0.3-0.4 0.3-0.9 0-1.4 0-0.6 0.1-1.2 0.4-1.8 0.4s-2.5-0.4-2.7-0.6c-1.3-0.2-2.7 0.3-4 0.8 0.3 0.2 0.3 0.4 0.4 0.8h-0.5l0.2-0.2c-0.4 0-0.9 0.2-1.3 0.3 0.2 0.7 0.9 0.5 1.4 0.3-0.3 0.5-0.9 0.4-1.5 0.6-0.5 0.2-1.4 1.3-0.4 1.1-0.1 0.1-0.1 0.3-0.3 0.5 0.2-0.1 0.3-0.1 0.5-0.1 0 0.1 0 0.1-0.1 0.2 0.1 0 0.1-0.1 0.2-0.1v0.2c0.2-0.1 0.4-0.1 0.6-0.2-1 0.9-2.2 1-3.2 1.7 2.1-0.4 3.5-1.8 5.4-2.6-0.3 0.1-0.7 0.4-0.8 0.8 0.8-0.2 1.2-0.4 1.9-0.4 0.8 0.1 1.3 0.9 2.1 0.8-0.1 0.6-0.1 1.8 0.3 2.2-0.6 0.8 1.3 1 0.4 2-0.2-1.2-0.9 1-1.2 1.6-0.4 0.8-0.5 2-0.2 2.8 0.2 0.4 1.7 3 0.9 3.3 0.6 0.7 0.6 1.2 1 2 0.6-0.7-1.1-2.5-0.6-3.6 0.4 0.2 0.8 1.8 1 2.3 0.2 0.4 0.6 1.1 0.8 1.6 0.1 0.7-0.2 0.6 0.2 1.3 0.2 0.4 0.9 0.7 1.3 0.9 0.5 0.3 1 0.1 1.3 0.2 0.8 0.3 1.4 1.1 2.1 1.3h-0.1c0.4 0.5 0.5 0.9 0.7 1.3 0.1-0.1 0.1-0.1 0.1-0.2 0.4 0.6 0.9 1.2 1.4 1-0.1-0.8 0.3-0.4 0.5-0.1 0.3 0.5 0.3 1.3 0.2 1.7-0.2 0.7-1.6 1.6-0.9 2.5 0-0.1 0.1-0.1 0.1-0.2 0 0.6-0.4 0.8-0.3 1.5 0.1 0.3 0.7 1.2 0.9 1.6 0.3 0.7 0.5 1.6 1 2.1 0.5 0.6 1.3 0.7 1.6 1.4s0.2 2 0.2 2.8c0 1 0.2 1.8 0.2 2.7 0.1 1.2-0.5 3.5 0.3 4.4v-0.5c0.3 0.3 0.2 0.4 0.3 0.9-0.1 0-0.2-0.1-0.3-0.1 0 0.5 0 0.6-0.1 1 0.1 0 0.3 0.1 0.4 0.1-0.8 1.1 0.7 2.6 1.6 2.7-0.1-0.5 0.1-0.6 0.6-0.6-0.6-0.4-0.2-0.6-0.2-1 0-0.2 0.3-0.7 0.3-0.7 0-0.2-0.3-0.5-0.3-0.4 0-0.1-0.3-0.3-0.3-0.6 0-0.2 0.4-0.2 0.4-0.2 0.1-0.5-0.2-0.7 0.3-1 0-0.1-0.1-0.1-0.1-0.2-0.8 0 0-0.5 0-0.4 0.1-0.3 0.5-0.3 0.1-0.9 1.8 0.4 1.2-1.1 0.8-2 1 0.9 1.4 0 1.9-1 0.6-1.3 0.3-2.4 1.5-3.2 0.7-0.5 0.7-0.1 1.1-1 0.3-0.8 0.3-1.4 0.4-2.2 0-0.8 1.2-2.2 0.8-3.6zm-12-30.7c-0.2 0-0.3-0.1-0.5 0 0.2 0.4 0.2 0.1 0.5 0zm-1.8-0.9c-0.2 0.1-0.4 0.2-0.5 0.3 0.4 0.1 0.8 0 1.2 0-0.2 0-0.4 0.2-0.6 0.2 0.5 0 1.7 0 2-0.5h-0.4c0-0.1 0-0.2 0.1-0.3-0.4 0.1-0.3-0.1-0.4 0.4-0.5 0.1-1-0.2-1.4-0.1zm1.8 2c-0.5-0.1-0.6-1.9-1.2-0.5 0-0.6-0.7-0.4-1.2-0.3l0.2-0.2c-0.5-0.1-1.1 0.2-1.5 0.5 0.2 0 0.4 0.1 0.7 0.1-0.2 0-0.4 0.1-0.6 0.1 0.3 0.2 0.8 0.1 1.2 0.2-0.4 0-0.8 0.1-1.2 0.1 0.6 0.8 3 0.6 3.6 0zm-0.2-2.4c0-0.3-0.3-0.1-0.7 0 0.3 0.1 0.5 0 0.7 0zm-2.4 0.5c0.4-0.1 0.9-0.1 1.2-0.5-0.6 0-1.2 0.2-1.8 0.5h0.6zm10.8 9.4c-0.1 0-0.2 0.2-0.3 0l0.1-0.1h-0.4c0.2-0.2 0.3-0.5 0.5-0.7-0.6 0.1-1.2 1.1-1.3 1.6 0.3 0 0.7 0 1 0.1l-0.2 0.2c0.1-0.1 0.4-0.2 0.5-0.3 0 0.1 0 0.2-0.1 0.4 0.4 0 0.5-0.3 0.4-0.7-0.1 0-0.1 0-0.2 0.1 0-0.1 0.1-0.2 0.1-0.3 0.1-0.2 0-0.2-0.1-0.3zm-18.4 0.2c0.7 0.6 0.5-0.1 0.2-0.5-0.5-0.4-0.7 0.1-0.2 0.5zm5.6-7.9c0.8-0.1 1.5-0.7 2.3-0.8-0.9-0.9-1.9 0-2.6 0.5 0.2 0 0.2 0.2 0.3 0.3zm8.1 2.3c-0.8-0.6-0.7-0.5-1.6 0.2 0.1 0 0.4 0.2 0.3 0.2 0.6-0.4 1.2-0.1 1.3-0.4zm-14.4 3.7c-0.2 0.2-0.3 0.4 0 0.7 0.1-0.2 0.2-0.5 0.3-0.7h-0.3zm14.2-3c0.1 0 0.1 0.3 0.2-0.1-0.1 0-0.1 0.1-0.2 0.1zm2.3 5.9c-0.1 0 0-0.3-0.2-0.1 0.3 0.2 0.2 0.2 0.6 0.1-0.1 0.1-0.3 0.1-0.4 0zm-3.1-6c0.2 0 0.3 0.1 0.6-0.2-0.3 0-0.4 0.1-0.6 0.2zm3.8 5c-0.2-0.2-0.3-0.3-0.6-0.3 0.2 0.2 0.4 0.2 0.6 0.3zm-3.5-9.7c0 0.2 0.1 0.2 0 0.5 0.7 0.2 2.2 0.4 2.7-0.2-0.7-0.3-1.4 0.1-2.1-0.2l0.1-0.1c-0.4-0.2-0.8-0.3-1.3-0.1 0.3 0.1 0.4 0.1 0.6 0.1zm-0.2-0.4h0.5c-0.1-0.1-0.4 0-0.5 0zm0.7-0.5h0.4c-0.1 0.1-0.2 0.1-0.3 0.2 0.6 0.4 1.2 0 1.8-0.2-0.5-0.6-1.3-0.6-2-0.2-0.1 0.2 0 0 0.1 0.2zm-1.2 1.4c0.2 0 0.3 0.1 0.5-0.1-0.2-0.1-0.7-0.3-0.5 0.1zm0.7-1c-0.1-0.2-0.1-0.3-0.5 0 0.3 0.1 0.3-0.1 0.5 0zm2.7 1.6h0.5c-0.2-0.3-0.6-0.4-0.9-0.2 0.1 0.3 0.1 0.2 0.4 0.2zm-2.8-0.4c-0.5-0.1-0.9 0.1-1 0.7 0.5-0.1 1-0.3 1.4-0.6-0.2 0-0.3-0.1-0.4-0.1zm4.6 1.3c-0.4-0.3-0.7-0.5-1.2-0.4-0.2-0.6-0.9-0.4-1.3-0.2 0.3-0.8-0.6-0.5-1-0.2 0-0.1 0-0.1-0.1-0.2 0.1-0.1 0.2-0.1 0.3-0.2-0.6 0-1.1 0.2-1.4 0.8h0.3c0 0.1-0.1 0.1-0.2 0.2 0.6 0.3 2.7 0.1 2.5 0.6 0.8 0.1 0.7 0.4 0.2 0.9-0.3 0.3-0.9 0.1-1.3 0.6 0.5 0.2 0.9-0.2 1.4 0.3l-0.1 0.1c0.4 0.3 0.8 0.5 1.2 0.5-0.1-0.2-0.2-0.5-0.4-0.7 1.4 1.5 0.5-0.9 0.4-0.7 0.3-0.6 0.9 0.8 1.6-0.4-0.5-0.1-0.8-0.5-1.3-0.6 0.2-0.1 0.3-0.1 0.5-0.2 0 0-0.1-0.1-0.1-0.2zm-5.8-2.6c0.2 0.1 0.4 0.1 0.6 0.1-0.1-0.4-0.5-0.5-0.9-0.3 0.1 0 0.1 0 0.2 0.1-0.1 0-0.2 0.1-0.3 0.1h0.4zm3.3-0.7c0.5 0.1 0.9 0.1 1.4 0.1-0.3 0.1-0.7 0.1-1 0.1 0.1 0.2 0 0.1 0.2 0.3-0.2 0.1-0.5 0.2-0.8 0.3 0.2 0.1 0.3 0.2 0.4 0.3-0.4-0.2-0.8 0-1.1 0.3 0.7 0.1 1.9 0.3 2.5-0.2h-0.4c0.4-0.3 1-0.4 1.2-0.7h-0.3c0.9 0 1.8-0.4 2.7-0.6h-0.4c0.4-0.1 0.9-0.1 1.3-0.3-1.6-0.4-4.4-0.4-5.9 0.3 0.1-0.1 0.1 0 0.2 0.1zm0.5 4.2c-0.2-0.3-0.3-0.3-0.5 0.2 0.3 0 0.4-0.1 0.5-0.2zm-5.1-3.6c-0.2 0-0.4-0.1-0.6 0.1 0.2 0 0.4-0.1 0.6-0.1zm0.6 2.8c-0.2 0-0.4 0-0.7 0.2 0.3 0.2 0.6 0.2 0.9 0.1 0-0.3-0.1-0.2-0.2-0.3zm-0.6-0.9c0.4 0.5 0.9 0.5 1.3 0-0.1 0-0.2-0.1-0.2-0.1 0.2-0.1 0.2-0.1 0.3-0.3-0.4 0-0.9-0.1-0.9 0.3-0.2 0-0.3 0.1-0.5 0.1zm0.9-0.8c0.4 0.2 0.9-0.1 0.9-0.5-0.4 0-0.8 0-1.1 0.4 0.4-0.2 0.2 0.1 0.2 0.1zm52.8 21c-0.7 0.3-0.2 0.9 0 0.7 0.3-0.4 0.3-0.6 0-0.7zm-53.4 0.1c0.2 0 0.3 0 0.4-0.2-0.8-0.5-2-1.9-3-0.7 0.3-0.1 0.6-0.2 0.9-0.3l-0.1 0.1c0.6 0.3 1 0.3 1.4 0.8-0.1 0.1-0.1 0.2-0.2 0.2 0.2 0 0.4 0.1 0.6 0.1zm31-6.3c-0.1 0.1-0.2 0.1-0.4 0.1 0.4 0.2 0.3 0.1 0.6-0.2 0 0-0.1 0-0.2 0.1zm-6.2-7.7c0.1-0.4 0.2-0.6-0.3-0.4 0 0.3 0.1 0.3 0.3 0.4zm-0.6 5.3c0-0.3 0.1-0.4 0-0.7-0.3 0.3-0.1 0.4 0 0.7zm-3.8-5.5c0.1-0.1 0.1-0.3 0.2-0.1 0 0.1 0.4 0.4 0.4 0.6 0 0.4-0.6-0.1-0.3 0.6-0.1 0-0.2 0.1-0.3 0.1 0.1 0 0.3 0.2 0.5 0.2-0.2 0.1-0.4 0.3-0.6 0.5 0.7 0 1.9 0 1.9-1-0.6-0.2-0.6-1-1.2-1.2 0.2-0.2 0.2-0.5 0.3-0.6h-0.5c0.1-0.1 0.2-0.3 0.3-0.4-0.8-0.1-0.9 0.7-0.7 1.3zm8.2 7.9c-0.2 0-0.2 0.1-0.4-0.1v0.2c0.3 0.1 0.5 0.2 0.8 0-0.2-0.1-0.2-0.1-0.4-0.1zm-11.8-13.2h-0.9c0-0.1 0.2-0.4 0.2-0.4 0.3 0.3 0.4 0.3 0.8 0.3-0.2-0.3-0.2-0.4-0.6-0.6h0.5c-0.1-0.1 0-0.2-0.2-0.4 0.3 0 0.5-0.1 0.7-0.2h-0.1 0.5c-0.1-0.1-0.2-0.2-0.2-0.3 0.3-0.2 0.3-0.2-0.1-0.5 0.2 0 0.5-0.1 0.7-0.1-0.3-0.4-0.2-0.7 0.3-0.9h-0.5c0.5 0 1-0.2 1.6-0.3-0.6-0.3-1.5-0.1-2.1 0 0.1-0.1 0.2-0.1 0.2-0.2-0.6-0.1-1.3-0.1-1.9-0.1 0.7 0 1.5 0.1 2.2-0.1-1.4-0.2-3.8-0.7-5 0.1 0.1 0 0.3 0.1 0.4 0.1-1.6-0.3-3.3-0.2-4.8 0.4 0.2 0 0.3 0.1 0.5 0.1-0.6 0.3-1.4 0.1-1.9 0.5 0.4 0.1 0.8 0.2 1.2 0.2-0.3 0-0.7 0-1 0.1 0.2 0.2 4.1 0.7 2.5 1.7 0.3 0.1 0.5 0.2 0.8 0.4-0.9-0.5-1 0.9 0 0.2-0.6 1-1.2 0.7-0.8 2.1 0.2 0.7 0.5 0.9 0.9 1.1 0.7 0.4 0.6 0.2 1.1-0.4 0.1-0.1 0.4-0.9 0.6-1.1 0.4-0.3 0.8-0.2 1.1-0.4 1.1-0.4 2.2-0.7 3.3-1.3zm-16.2 20.1c0.3 0.1 0.4-0.1 0.6 0.3 0.2-0.4 0.6-0.3 0.9-0.4-0.3-0.4-0.9-0.7-1.4-0.4 0.2 0.2 0.1 0.2 0.3 0.4-0.2 0-0.3 0.1-0.6 0-0.1 0.3 0 0.1 0.2 0.1zm55.5 10.9c0.1 0 0.2-0.1 0.3-0.1-0.1-0.2-0.4-0.2-0.6 0.2 0.1 0 0.2-0.1 0.3-0.1zm1.7-1.7c-0.2-0.4-0.3-0.7-0.5-1.1 0.2-0.1 0.3-0.3 0.5-0.3v-0.2c-0.4 0.2-1.4 0.1-0.8-0.4 0.5-0.4 1.2 0.5 1.3-0.5-0.4 0.6-0.9 0-1.3 0.2-0.3 0.2-0.5 1.1-0.5 1.5 0 0 0.3 1.2 0.2 1.2 0.4 0.2 0.2-0.9 0.4-1.2 0 0.4 0.1 0.6 0.2 0.9 0.1-0.1 0.2-0.1 0.3-0.2-0.1 0.3 0 0.3 0 0.5 0.2-0.1 0.1-0.2 0.2-0.4zm-4-1.3c0.1 0.8 1.5 1.1 1.9 1.1 0.1-0.7 0.3-1.8 0.9-2-0.6-0.8-0.4-1.3 0-1.8-0.4-0.2-0.5-0.6-0.8-0.5s-0.6 0.9-0.8 1.1c-0.6 0.7-1.8 0.8-1.2 2.1zm7.3 1.8c-0.1 0.1-0.2 0-0.2 0.5 0.2-0.2 0.1-0.4 0.2-0.5zm-2.2-1.1h-0.3c0.3 0.5 0.2 0.1 0.3 0zm-2 2.9c-0.1-0.2-0.1-0.4-0.5-0.3 0.2 0.2 0.3 0.2 0.5 0.3zm0.7-0.7c-0.1-0.2-0.5-0.1-0.8 0.1 0.2 0.1 0.5 0 0.8-0.1zm-3.6-0.2c0.5 0.1 1 0.2 1.5 0.1-0.6-0.3-2.6-1.5-3-0.6 0.5 0.2 1 0.3 1.5 0.5zm-1.3-1.5c0.3-1-2-4.1-3.1-3.9 0.4 0.9 1 1.6 1.5 2.5 0.2 0.3 1.7 3.2 1.6 1.4zm6.8-0.4c0.2 0.1 0.3 0 0.5 0.2-0.2-0.5-0.6-0.6-0.9-0.2h0.4zm-0.3-1c0.1-0.4 0.3-0.8-0.1-1.2-0.1 0.4-0.1 0.8 0.1 1.2zm-1.2 3.7c0.2-0.3 0.6-0.5 0.9-0.7-0.5 0-1 0.2-1.2 0.8 0.1 0 0.2 0 0.3-0.1zm-38.6-25.2c-0.1 0.1-0.1 0.3-0.2 0.4 0.4 0.1 1.4-0.5 1.1-1-0.3-0.7-1 0-0.9 0.6zm-2.3-4c0.5 0.1 1.1-0.1 1.5-0.5 0-0.1-0.2-0.4-0.2-0.5-0.6 0.1-1.9-0.2-2.3 0.3 0.2 0 0.3 0.1 0.5 0.1-0.1 0-0.2 0.1-0.4 0.2 0.2 0.1 0.3 0.1 0.5 0.2-0.1 0.1-0.2 0.1-0.2 0.2 0.2-0.1 0.4-0.1 0.6 0zm6.9 8.9c0.1 1.7 0.3-1.3 0 0zm1.8 0.9c-0.2 0-0.4 0.1-0.6 0 0.1 0.3 0.4 0.5 0.7 0.6 0.1-0.5 0-0.5-0.1-0.6zm-26.4 7.9c-0.1 0.1-0.2-0.1-0.2 0.1 0.3 0.2 0.3 0.2 0.6 0.1-0.1-0.2-0.2-0.1-0.4-0.2zm45.9 3.7-0.2-0.2c-0.5 1.9 1.1 1.5 0.2 0.2zm-9 9.2c0-0.2-0.1-0.4-0.2-0.6-0.1 0.3-0.3 0.5-0.4 0.7-0.1 0.8-0.9 0.8-1.1 1.4-0.2 0.4 0.1 0.7 0 1.1s-0.3 0.6-0.4 1c-0.1 1.2 0.5 1.5 1.1 0.7 0.5-0.7 0.9-2.6 0.9-3.5 0 0.1 0.1 0.2 0.1 0.2 0.1-0.3 0-0.6 0-1zm13.3-12.1c-0.9 0.8-1-2.4-2-2.6v0.4c-0.3-0.1-0.5 0-0.9 0.1 0.1 0.9-1.3 1.5-1.5 2.2-0.2 0.6-0.2 2.1-0.3 2.7-0.1 0.1-0.3 0.4-0.5 0.5-1-1.2-1.5-3.8-1.8-5.4-0.6 0.6-1.1-0.6-1.6-1-0.5-0.5-0.4-0.4-1.1-0.5-0.5-0.1-0.9 0.1-1.3-0.1s-0.5-0.6-0.8-0.7-0.5 0.2-1 0c-0.7-0.3-0.8-1.5-1.5-1.1 0.1 0.9 0.8 1.3 1 2.1 0-0.2 0.1-0.4 0.1-0.5 0.1 1.3 1 0.8 1.4-0.1-0.1 0.9 0.5 0.7 0.8 1.1 0.4 0.8 0.2 0.6-0.1 1.2-0.4 1-0.6 1.2-1.5 1.7-0.6 0.4-2 1.9-2.6 1.1-0.3-0.4-0.1-0.9-0.2-1.3-0.2-0.5-0.7-1-0.9-1.4-0.4-0.8-1.8-3-1.6-3.7 0 0.3-0.2 0.5-0.2 0.7-0.2-0.3-0.4-0.5-0.5-0.9 0.1 0.8 0.6 1.5 0.9 2.2s0.4 1.4 0.7 2.1 2 2.5 1.7 3c0.5 0.9 1.8 0.2 2.4-0.1 0.1 3.4-3.7 4.9-3.4 7.8 0.1 1.4 0.7 2.7-0.3 3.9-0.7 0.8-1 0.7-1.1 1.7 0 0.5 0.2 0.8-0.1 1.3-0.1 0.2-0.6 0.3-0.7 0.5 0 0.1 0 0.5-0.1 0.7-0.2 0.5-0.5 1.1-0.9 1.5-0.5 0.6-0.9 0.8-1.4 1-0.2 0.1-1.4 0.4-1.5 0.4-0.6-0.2-0.2-0.7-0.3-1.2-0.2-0.8-0.6-1.4-0.8-2.2-0.2-0.9-0.2-1.6-0.5-2.5-0.3-0.8-0.5-1.3-0.2-2.2 0.3-1.4 0.5-2.2 0.1-3.5-0.3-1-0.9-1.5-0.9-2.5 0-0.8 0.3-1.3-0.2-1.9-0.9 0.6-1.1-0.8-2.2-0.5-0.7 0.2-1.9 0.8-2.6 0.6-1.5-0.3-2.2-3.1-2.8-4.2 0.8-0.8 0.2-2.2 0.4-3 0.1-0.4 0.4-1.2 0.6-1.5 0.4-0.6 0.9-0.7 1.2-1.3 0.5-0.8 0.3-1.3 1-2 0.8-0.9 0.3-0.3 1.4-0.5 0.9-0.1 2.7-1.4 3.4-0.6 0.1 0 0.2-0.1 0.2-0.1-0.2 0.8-0.3 1.2 0.3 1.7 0.5 0.4 1.7 1.1 2.2 0.8 0.1 0 0-0.6 0.5-0.7 0.2-0.1 0.7 0.4 0.9 0.5 0.5 0.2 1.7-0.1 1.9 0.3 0.9 0.2 1-1.5 1-2.3-0.6 0-1.4 0.3-1.9 0.1-1.2-0.5-0.9-1.5 0-1.9 0.4-0.2 1.1-0.3 1.6-0.3 0.4 0 1 0.7 1.4 0.3 0.6-0.6-0.9-1.3-1.3-1.6 0.3-0.4 0.2-0.2 0.2-0.5 0.1-0.1 0.2-0.1 0.4-0.2-0.4-0.1-1.6 0.5-0.6 0.6-0.4 0.4-0.8 0.5-1.1 0.1 0.1-0.1 0.2-0.1 0.3-0.2-1-0.9-1.9 1.4-1 1.8-0.2 0.1-0.5 0.3-0.7 0.5-0.2-0.4-0.3-0.3-0.7-0.2l0.2 0.2c-0.3-0.1-0.2 0.1-0.4-0.1 0 0.5 0.2 0.7 0.4 1.1-0.1 0-0.2-0.1-0.3-0.1 0.1 0.2 0.1 0.2-0.1 0.2 0 0.1 0.1 0.2 0.1 0.4-1 0-1-1.6-1.3-2.1s-1.4-1.3-1.6-1.2c-0.1-0.2 0-0.2 0-0.3-1.3 0 1.2 2 1.3 2.3-0.7-0.5-0.1 0.3-0.7 0.8 0.3-1-0.8-1.3-1.3-1.8-0.6-0.6-0.2-0.5-0.9-0.6-0.5-0.1-1.1 0.5-1.3 0.7-0.8 0.6-0.7 1.7-1.5 2.2s-1.1-0.4-1.8-0.1c-0.1-0.5-0.2-2.3 0.1-2.6 0.4-0.5 1.5 0.4 1.9-0.1 0.7-0.8-0.5-1.5-0.8-2 0.3 0 0.5-0.1 0.8 0 0-0.1-0.1-0.3-0.1-0.4 0.5 0.3 0.9-0.3 1.2-0.6s0.8-0.7 1-0.9c0.1-0.2 0.3 0.2 0.4-0.1 0 0-0.1-0.3-0.1-0.4 0.2-0.4-0.2-0.8 0.5-1 0 0.1 0.1 0.4 0.1 0.5-1.1 0.9 1.1 0.8 1.5 0.7 0.6-0.1 0.7 0.1 1.1-0.3 0.2-0.2-0.2-1.4 0.7-0.6v-0.5c-0.2-0.1-0.1-0.1-0.3-0.3 0.5-0.2 0.9 0 1.3-0.3-0.6-0.4-1.5 0.5-1.9-0.3-0.4-0.7 0.2-1.2 0.8-1.5-0.5-0.8-0.9 0.1-1.2 0.5-0.7 0.9-0.3 0.8-0.4 1.8 0 0.2-0.6 1.4-0.9 1.3-0.4-0.1-0.7-1.2-1-1.4-0.3-0.1-1.5 0.8-1.2-0.8 0.1-0.6 1.1-1 1.6-1.5 1-1.1 2.6-2.5 4.1-1.6-0.1 0-0.2 0.1-0.3 0.1 0.4 0.2 2.3 0.3 2.6 0.9 0.4 1-1.2 0.3-1.6 0.4 0.5 0.3 0.5 0.9 1.1 1-0.1-0.1-0.1-0.2-0.2-0.3h0.9c-0.1-0.1-0.1-0.2-0.2-0.3 0.3-0.3 0.6-0.4 0.9-0.2 0-0.3-0.1-0.6-0.3-0.9 0.4 0 0.6 0.1 0.8 0.3h-0.3c0.4 0.6 1.1-0.3 1.9-0.4l-0.2 0.2c0.5 0 1.2-0.1 1.6-0.3-0.1-0.1-0.2-0.1-0.3-0.2 0.6-0.2 1.5 0.2 2.1 0.5 0-0.1 0.1-0.1 0.1-0.2-0.7-0.3-1.2-1.5-0.2-1.4 0.5 0 1.4 1.7 1 2.2 0.4 0 0.5-0.1 0.6-0.5-0.4-0.4-0.6-0.8-1-1.2 0.1-0.1 0.2-0.1 0.3-0.2-0.1-0.1-0.1-0.2-0.2-0.2l0.6 0.6c-0.1-0.1-0.1-0.2-0.2-0.2 0.4-0.2 0.8-0.2 1.2 0-0.3-0.2-0.3-0.4-0.5-0.6 0.4-0.1 0.9-0.1 1.3-0.1-0.1-0.1-0.2-0.1-0.3-0.2 0.6-0.7 1.8-0.5 2.7-0.6 0.1-0.4 0.5-0.5 0.9-0.3 0.2-0.4 0.1-0.4 0-0.4 0.7 0.2 1.8-0.1 2.3 0.6-0.2 0.1-0.5 0.3-0.7 0.4 1.1 0.1 2.1 0.5 3.2 0.4-0.1-0.1-0.1-0.2-0.2-0.2 1.1 0 1.5 0.7 2.5 1 0-0.1-0.1-0.2-0.1-0.4 0.6 0.2 1.2 0.1 1.8 0.1-0.1-0.1-0.3-0.2-0.4-0.3 0.5-0.3 1.7-0.1 2.3 0.1 0.7 0.2 1.4 0.2 2.1 0.4 1.1 0.2 2.5 0.9 3.6 0.7-0.2-0.1-0.3-0.2-0.5-0.4 1.8 0.3 2.5 0.3 3.9 1.8-0.2 0-0.2 0.1-0.5 0.1 0.4 0.2 0.9 0.4 1.2 0.8-0.6-0.2-1.3 0.2-1.3 0.9-0.5-0.4-1.1 0-1.6 0 0 0.9 0.6 0.7 1 1.4h-0.2c0.1 0.2 0.2 0.3 0.3 0.5-0.1 0.1-0.2 0.1-0.3 0.2 0.1 0.1 0.1 0.3 0.2 0.4-0.1 0-0.2 0.1-0.3 0.1 0.2 0.4 0 0.4 0 0.7-0.7-0.7-1.6-1.6-1.8-2.6 0.5-0.2 1-1.7 0.2-1.7 0.2 1-0.4 0.2-0.7 0.3-0.4 0.2-1.1 0.3-0.3 0.9-0.6 0.3-1.3-0.1-2 0-1.2 0.1-1.2 0.4-1.8 1.7 1.2 0.2 2.2 0.4 2.5 2.1 0.1 0.6 0.1 1.6-0.2 2.1-0.4 0.5-0.6 0.3-0.9 0.6l-0.4 0.9c0.1 0.5 0.3 0.4 0.6 0.9 1.1 1.9-0.9 1.2-0.5 0.3-0.2-0.2-0.7-0.8-0.7-0.8-0.4-0.2-0.5-0.6-1.1 0 0.4-1.3-0.9-0.4-0.9 0 0 0.9 1.3 0.4 1.6 0.8-1.4 0.4 0.5 2.1 0.6 2.8 0.2 1.5-0.7 2.5-1.6 3.1-0.3 0.2-0.4 0.3-0.8 0.4-0.1 0 0.1 0.4-0.1 0.4-0.1 0-0.2-0.3-0.2-0.3-0.1 0-1-0.5-1 0.7 0 0.8 1.1 1.3 1.3 2.1 0.2 1.1-0.4 1.4-1 2.1 0-0.5-0.9-1.6-1.4-1.6v-0.3h-0.3c0 0.6-0.1 1.2 0 1.7 0.1 0.4 0.5 0.7 0.7 1.1 0.4 0.8 0.5 1.3 0.8 2.1-1.2-0.2-1.1-2-1.8-2.8v0.2c0.1-0.5 0-3.8-0.7-3.4zm-20.7 3.3-0.2-0.2c0.1 0.1 0.1 0.2 0.2 0.2zm7.6-11.7c-0.1-0.7-0.4-0.9-0.5-1.5 0.3 0.1 0.3 0 0.5 0-0.2-0.4-0.5-0.6-0.5-0.1-0.1-0.7-0.6-0.8-0.9-1.4h0.3c0.2-0.4-0.1-0.3 0.4-0.3 0.1-1-1-0.7-1.3-0.2-0.5 0.8 0.2 1.8 0.8 2.3-0.9 0.6 0.4 1.9 1.2 1.2zm-10.8-15.5c0.4 0.2 1 0.2 1.5-0.1-0.6-0.2-1.4-0.2-2-0.1 0.2 0.2 0.3 0.2 0.5 0.2zm0.6 0.8c0.1 0 0.3-0.1 0.4-0.1-0.3-0.1-0.5-0.1-0.8-0.1 0.1 0.3 0.1-0.1 0 0.2 0.2-0.1 0.3-0.1 0.4 0zm-1.9-0.2c0.1 0 0.2 0.1 0.3 0.1-0.1 0-0.1 0.1-0.2 0.1 0.7 0.5 0.8-0.4 1.5-0.5-0.9-0.3-1.4-0.2-2.2-0.2 0.2 0.2 0.4 0.4 0.6 0.5zm-22 22.5c0.1 0.1 0 0.4 0.4 0.1-0.1-0.1-0.2-0.1-0.4-0.1zm28.5-23.2c0.3 0.1 0.6 0 0.9-0.1h-1.3c0.3 0 0.5 0.2 0.4 0.1zm2.1 2.8c0.4 0.2 0.9 0.4 1.4 0.3-2-0.4 1.3-1.7 1.6-1.9-0.7-0.3-1.8 0.1-2.5 0.5-0.1 0.2 0 0.1-0.3 0.4h0.2c-0.4 0.2-0.4 0.4-0.4 0.7zm7.4-2.5c0.5 0.1 1 0.2 1.5 0.2-0.4-0.6-1.5-0.9-2.1-0.4 0.2-0.1 0.3 0.1 0.6 0.2zm10.6 1.4c0.3-0.1 0.7-0.1 1.1-0.1-0.3-0.5-1.3-0.5-1.8-0.4 0.2 0.4 0.4 0.5 0.7 0.5zm-8.1-1.2c-0.5-0.2-0.9-0.4-1 0.2 0.4 0 0.9 0 1-0.2zm9 1.5c-0.2 0.1-0.2 0-0.3 0.2 0.3 0.1 0.6 0.1 0.8 0.1-0.1-0.2-0.3-0.3-0.5-0.3zm-71.6 3zm2.7-2.1c-0.2-0.1-0.3-0.2-0.6 0.1 0.2 0 0.4-0.1 0.6-0.1zm74.6 6.9c0.6 0.5 0.9 1.6 1.4 2.3v-0.3c0.1 0.1 0.2 0.2 0.3 0.2-0.3-0.4-0.7-0.7-0.7-1.2 0.2 0 0.3 0.1 0.5 0.1-0.6-0.6-1.2-1.8-1.8-2 0.1 0.3 0.2 0.4 0.3 0.9zm-76.8-5.1s0.3 0.1 0.5 0.1c0.1 0.8 1.1-0.1 1.7-0.2-0.2-0.5-0.7-0.4-1-0.2 0.1-0.1 0.2-0.1 0.2-0.2-0.5-1.3-1.3 0.2-1.9 0.8 0.2-0.2 0.7-0.7 0.5-0.3zm72.1-3c0.2 0 0.3 0.1 0.5-0.1-0.3-0.1-0.7-0.1-1.1-0.1 0.2 0.1 0.3 0.1 0.6 0.2zm8.2 1.3c-0.1-0.1-0.2-0.2-0.3-0.2l-0.1 0.1c0.2 0.1 0.3 0 0.4 0.1zm-57.3 23.5s0.1 0.3 0.2-0.2c-0.1-0.1-0.2 0.2-0.2 0.2zm-21.4-20.9c-0.3-0.1-0.4-0.2-0.7 0 0.2 0.1 0.4 0 0.7 0zm2.1 1.9c-0.3 0.1-0.5 0.1-0.5 0.5 0.2-0.1 0.5-0.2 0.7-0.3-0.1-0.3-0.1-0.1-0.2-0.2zm-2.8-0.8c0.2 0 0.3 0.3 0.4 0-0.1-0.1-0.3 0-0.4 0z">
<animateTransform attributeName="transform" dur="2s" keyTimes="0;1" repeatCount="indefinite" type="translate" values="-100 0;0 0"/>
</path>
<path transform="scale(2)" d="m64.4 74.4c0.3 0.3 0.2 0.3-0.3 0.3 0-0.4 0.1-0.2 0.3-0.3zm-33 1c-0.2 0.1-0.3-0.2-0.5 0.1 0.3 0.2 0.6 0.1 0.8-0.1-0.1-0.2-0.1 0-0.3 0zm53.5-38.5c-0.3 0.2-0.8-0.1-1.1-0.5 0.1 0.2 0.1 0.6 0.3 0.9-0.5 0.2-0.2 0.6 0.2 0.7v-0.4c0.2 0.1 0.4 0.2 0.5 0.3 0.2-0.2 0.2-0.3 0.4-0.5-0.1-0.2-0.2-0.4-0.3-0.5zm0.2 3.7c0-0.6-0.1-2.1-0.6-2.4-0.6-0.4 0.5 2.1-0.6 1.6 0 0.2-0.1 0.5 0 0.7-0.8-0.3-0.9 0.5-1.4 0.9 0.3 0.3 0.4 0.6 0.6 0.9 0.3-0.4 0.2-0.9-0.3-1.2 0.2 0 0.4-0.2 0.6-0.2s0.6 0.2 0.6 0.2c0.2-0.1 0.5-0.4 1.1-0.5zm-1.4 0.4c-0.4-0.1-0.7 0.2-0.3 0.6 0.2-0.4 0-0.1 0.3-0.2 0.1-0.2-0.1-0.3 0-0.4zm9.8 21.8c0.1 0.5 0.3 0.9 0.7 0.8-0.1-0.3-0.4-0.6-0.7-0.8zm-0.5 8.4c-0.1-0.1-2.5 1.6-2.9 2.1 0.8 0.5 2.9-1.2 3.1-2.1-0.2 0.3-0.3 0-0.2 0zm2-1.3c-0.4 0.2-0.6 0-0.5-0.4 0 0.1-0.1 0.2-0.1 0.3 0.1-0.5 0.1-0.8-0.1-1.1-0.3 0.7 0.1 1.4-0.7 2 0.3 0.3 0.3 0.4-0.1 0.7 0.1 0 0.1 0.1 0.1 0.2 0.3-0.3 1.4-1.4 1.4-1.7zm-13-19.3c0.2-0.2 0.3-0.2 0.3-0.5-0.1 0-0.3-0.1-0.4-0.1 0 0.2 0 0.4 0.1 0.6zm0.4 0c-0.3-0.4-0.2 0.1-0.1 0.5 0.2-0.3 0.3-0.5 0.2-0.9 0 0.2-0.1 0.3-0.1 0.4zm0.4-0.9h-0.3c0 0.1 0.2 0.4 0.2 0.5h-0.2c0.1 0.2 0.1 0.3 0.2 0.5 0.1-0.2 0.1-0.2 0-0.5 0.1 0 0.2 0.1 0.2 0.1 0.1-0.2 0-0.4-0.1-0.6zm-1.8 1.3c0.2-0.3 0.3-0.4 0.2-0.8-0.1 0.5-0.4 0.8-0.6 1.2 0.2-0.1 0.3-0.3 0.4-0.4zm0.2-2.4c0.1 0.2 0.1 0.5 0.3 0.3 0 0.4 0.3 0.6 0.6 0.6 0 0 0-0.1 0.1-0.1 0.1 0.2 0.2 0.3 0.4 0.4 0-0.7-0.6-0.5-0.8-1-0.2-0.4 0.2-0.9 0-1.4-0.5-0.1-0.6 0.3-0.4 1l-0.1-0.1c-0.2 0-0.2 0.1-0.1 0.3zm2.1 3.6c0.1-0.5 0.1-1.1-0.3-1.4v0.3c-0.4 0.2-0.9 0.1-0.9 0.8 0.7-0.7 0.4 0.2 1 0.5 0-0.2 0.1-0.5 0.1-0.7 0 0.3 0.1 0.4 0.1 0.5zm-1.8-2.6c0.1-0.1 0.3-0.1-0.2-0.3 0.1 0.1 0.2 0.2 0.2 0.3zm10.3 7.8c0.1 0.1 0 0.2 0.2 0.1-0.1-0.2-0.2-0.5-0.3-0.7-0.1 0.2 0 0.3 0.1 0.6zm-1.6-0.1c0.4-0.1 1.1-0.5 0.6-0.9-0.1 0.4-0.2 0.6-0.4 0.3-0.1 0-0.5 0.2-0.5 0.3 0 0.2 0.1 0.2 0.3 0.3zm0.7-1.2c0.1 0.2 0.2 0.3 0.2 0.5 0.1-0.5-0.2-0.8-0.6-0.8 0.2 0.1 0.3 0.2 0.4 0.3zm-0.6 2.9c-0.2-0.4-0.7-0.7-1-1.6h0.3c-0.7-0.7-1.4-1.7-2.5-1.8-0.5-0.1-1 0.5-1.3 0.3-0.5-0.2-0.1-1.4-1.2-0.8 0.3 0.4 0.6 0.5 0.9 0.6-0.2 0-0.3 0.1-0.5 0.1 0.1 0.2 0.2 0.4 0.3 0.5 0.1 0 0.2-0.2 0.2-0.2 0.6 0.5 2 1 1 2 0.6-0.3 0.7 0.4 1.2 0.3 0.4-0.1 0.4-0.5 0.6-0.5 0.9 0 1.2 1 2 1.1zm2.9-0.5c-0.1 0.1-0.2-0.2-0.2 0.1 0.3 0.2 0.2 0 0.2-0.1zm-0.8-0.8s-0.1-0.2-0.2-0.3c0 0.2 0.1 0.2 0.2 0.3zm0.5 0.3 0.2 0.2c-0.2-0.2-0.3-0.3-0.5-0.4 0.1 0 0.2 0.1 0.3 0.2zm0.6 1.1c0.1-0.2 0.1-0.3 0 0zm0-0.4c0-0.2 0-0.4-0.2-0.6 0 0.2 0.1 0.4 0.2 0.6zm-12.5-12.8c0.1-0.5 0.2-1-0.1-1.3-0.3 0.4-0.3 0.9 0.1 1.3zm13.8 15.1s0.1-0.2 0-0.4c-0.1 0.2 0 0.5 0 0.4zm0 0.2c0.1 0.1 0 0.3 0.2 0.1-0.1-0.2-0.2-0.1-0.2-0.1zm-65.3 15.1c-0.4-0.8-0.5-0.2-0.7-0.2 0.2 0-0.3 0.2-0.3 0.2-0.2 0-0.6-0.3-0.9-0.4 0.9 0.9 1.9 1.2 2.6 0.7-0.2 0-0.4-0.2-0.7-0.3zm60.1-11.9c0-0.2-0.2-0.3-0.1-0.7-0.2 0-0.1-0.1-0.3 0 0.1-0.8-0.5-1.1-0.7-1.7-0.1-0.5 0-1-0.2-1.6l-0.2 0.2c0-0.5-0.1-1.1-0.2-1.6-0.5 0.9-0.5 3.8-1.7 2.2-0.3-0.5-0.4-0.2-0.4-0.8 0-0.3 0.4-0.5 0.4-0.7 0-0.1-1.1-0.4-1.4-0.5 0.3 0.3-0.7 0.7-0.8 1.5-0.5-0.2-0.7-0.4-1.1-0.2-0.4 0.1-0.7 0.9-0.7 1.1l-0.1 0.1c0-0.1 0-0.2-0.1-0.3-0.4 0.8-0.6 1.1-1.3 1.4-0.6 0.3-1.1 0.4-1.6 1v-0.3c-0.3 0.6-0.5 1.1-0.3 1.8-0.1-0.1-0.1-0.2-0.2-0.3v0.4c0-0.1-0.1-0.1-0.1-0.2 0.1 1 0.1 1.7 0 2.7 0 0.4-0.6 0.5 0 0.9 0.4 0.2 0.7-0.3 1-0.4 0.8-0.2 1.4-0.5 2.3-0.7 1.4-0.5 1.7-0.2 2.1 1.1 0.2-0.3 0.5-0.6 0.8-0.8-0.1 0.4-0.3 0.7-0.6 1 0.2-0.1 0.3-0.2 0.5-0.4-0.1 0.2-0.1 0.3-0.2 0.5 0.5 0.2 0.5 2.1 1.5 0.9 0 0.1-0.1 0.1-0.1 0.2 1.1 1.1 5-4.1 3.8-5.8zm-3.7 6.9c-0.4-0.2-1 0.2-0.7 0.8 0.2 0.6 0.9-0.4 1.1-0.9-0.1 0-0.2 0-0.4 0.1zm-61.3-27c0-0.2 0.2-0.3-0.1-0.5 0 0.2 0.1 0.4 0.1 0.5zm-0.4 0.6c0.1 0.1 0.1 0.2 0.1 0.4 0.1-0.2 0.1-0.3 0-0.6-0.2-0.1 0 0.1-0.1 0.2zm0.2-1c-0.2 0-0.3-0.1-0.3 0.2 0.2 0 0.3-0.2 0.3-0.2zm11.8 13c-1-0.3-1.6-1.5-2.7-1.1 0-0.7-0.8-0.9-1.2-0.6 0-0.4-0.4-0.5-0.5-0.8-0.1-0.1-0.1-0.7-0.2-1-0.3-0.7-0.6-0.8-1.2-1.1s-0.6-0.2-1.1-0.8c-0.3-0.4-0.6-0.7-1-1 0.1 0 0.2-0.1 0.3-0.1-0.9-0.2-1.7 0.6-2.3-0.6-0.4 0.3-0.4 0.8-0.6 1.2v-0.9c0.4-0.6-0.1-0.2-0.5 0.1-0.3 0.2-0.7 0.9-1 1l-1.6-0.3c-0.8-0.7 0.1-1.4-0.1-2.2s-1.1-0.3-1.6-0.5c0.2-0.3 0.3-0.7 0.3-1.1 0.1 0 0.1 0 0.1 0.1 0.2-1.2 0.5-1.7-0.7-0.8-0.6 0.5-1.3 1.5-1.8 0-0.3-0.8 0-2.4 0.4-3.1 0.7-1.1 1.6-0.5 2.3-0.6-0.1-0.7 1.4-0.4 1.6-0.3 0.2 0.3 0.2 2.8 0.8 1.6 0.5-1-0.4-1.7 0.5-2.7 0.6-0.7 2-1.1 1.3-2.2 0.1 0 0.1 0 0.2 0.1 0-0.2 0-0.3 0.1-0.4 0 0.4 0 0.4-0.1 0.8 0.3-0.4 0.3-0.4 0.3-0.9 0.1 0.1 0.1 0.1 0.1 0.2 0.2-0.3 0.4-0.5 0.4-0.7 0 0 0.4-0.1 0.6-0.1h-0.5c0.4-0.2 0.8-0.2 1.1-0.4h-0.2c-0.1-0.9 1.4-1.5 1.9-1.4-0.5 0.2-0.4 0.3-0.6 0.7 0.5-0.1 1.4-0.5 1.9-0.9 0-0.1-0.1-0.3-0.1-0.4-0.6 1.2-1.7-0.1-0.8-0.7-0.7-0.6-1.3 0.5-2 0.8 0.5-0.5 1.1-1.2 1.7-1.3 0.8-0.2 1.5 0.2 2.2-0.4 1.2-0.9 0.1-1.1-0.6-1.9 0.2-0.5-0.1-0.9-0.2-1.5-0.5 0.5-1.8 1-1.1-0.3-0.5 0-0.6-0.4-1.2-0.4-1 0-0.4 0.7-1.2 1.3 0.6 0.8-0.3 1.4-0.9 1.5 0.6 1.6-1.5 1.4-0.5-0.2-0.8 0-1.4-1-2.2-0.7 0-0.6 0.1-0.4-0.3-0.7 0.5-1.3 2.5-2.2 3.5-2.7 0.3-0.1 1.4-0.2 1.3-0.9-0.2-1-1.3 0.4-1.7 0.6 0.1-0.2 0-0.2 0.1-0.5-0.2 0-0.2-0.2-0.6 0 0.1-0.1 0.1-0.2 0.2-0.3-0.1 0-0.2 0-0.4-0.1 0.7-0.6-0.4-1-0.8-0.1 0.5 0.5-0.1 0.7-0.5 1 0.1-0.1 0.1-0.2 0.2-0.3-0.5-0.2-1 0.1-1.6 0-0.4-0.1-0.7-0.4-1.2-0.1l0.1 0.1c-0.4 0.1-1.1 0.1-1.7 0 0.1-0.1 0.3-0.1 0.4-0.2-0.6-0.3-1.5-0.7-2.1-0.3 0.1-0.1 0.1-0.2 0.2-0.3-0.4 0.3-0.9 0-1.4 0-0.6 0.1-1.2 0.4-1.8 0.4s-2.5-0.4-2.7-0.6c-1.3-0.2-2.7 0.3-4 0.8 0.3 0.2 0.3 0.4 0.4 0.8h-0.5l0.2-0.2c-0.4 0-0.9 0.2-1.3 0.3 0.2 0.7 0.9 0.5 1.4 0.3-0.3 0.5-0.9 0.4-1.5 0.6-0.5 0.2-1.4 1.3-0.4 1.1-0.1 0.1-0.1 0.3-0.3 0.5 0.2-0.1 0.3-0.1 0.5-0.1 0 0.1 0 0.1-0.1 0.2 0.1 0 0.1-0.1 0.2-0.1v0.2c0.2-0.1 0.4-0.1 0.6-0.2-1 0.9-2.2 1-3.2 1.7 2.1-0.4 3.5-1.8 5.4-2.6-0.3 0.1-0.7 0.4-0.8 0.8 0.8-0.2 1.2-0.4 1.9-0.4 0.8 0.1 1.3 0.9 2.1 0.8-0.1 0.6-0.1 1.8 0.3 2.2-0.6 0.8 1.3 1 0.4 2-0.2-1.2-0.9 1-1.2 1.6-0.4 0.8-0.5 2-0.2 2.8 0.2 0.4 1.7 3 0.9 3.3 0.6 0.7 0.6 1.2 1 2 0.6-0.7-1.1-2.5-0.6-3.6 0.4 0.2 0.8 1.8 1 2.3 0.2 0.4 0.6 1.1 0.8 1.6 0.1 0.7-0.2 0.6 0.2 1.3 0.2 0.4 0.9 0.7 1.3 0.9 0.5 0.3 1 0.1 1.3 0.2 0.8 0.3 1.4 1.1 2.1 1.3h-0.1c0.4 0.5 0.5 0.9 0.7 1.3 0.1-0.1 0.1-0.1 0.1-0.2 0.4 0.6 0.9 1.2 1.4 1-0.1-0.8 0.3-0.4 0.5-0.1 0.3 0.5 0.3 1.3 0.2 1.7-0.2 0.7-1.6 1.6-0.9 2.5 0-0.1 0.1-0.1 0.1-0.2 0 0.6-0.4 0.8-0.3 1.5 0.1 0.3 0.7 1.2 0.9 1.6 0.3 0.7 0.5 1.6 1 2.1 0.5 0.6 1.3 0.7 1.6 1.4s0.2 2 0.2 2.8c0 1 0.2 1.8 0.2 2.7 0.1 1.2-0.5 3.5 0.3 4.4v-0.5c0.3 0.3 0.2 0.4 0.3 0.9-0.1 0-0.2-0.1-0.3-0.1 0 0.5 0 0.6-0.1 1 0.1 0 0.3 0.1 0.4 0.1-0.8 1.1 0.7 2.6 1.6 2.7-0.1-0.5 0.1-0.6 0.6-0.6-0.6-0.4-0.2-0.6-0.2-1 0-0.2 0.3-0.7 0.3-0.7 0-0.2-0.3-0.5-0.3-0.4 0-0.1-0.3-0.3-0.3-0.6 0-0.2 0.4-0.2 0.4-0.2 0.1-0.5-0.2-0.7 0.3-1 0-0.1-0.1-0.1-0.1-0.2-0.8 0 0-0.5 0-0.4 0.1-0.3 0.5-0.3 0.1-0.9 1.8 0.4 1.2-1.1 0.8-2 1 0.9 1.4 0 1.9-1 0.6-1.3 0.3-2.4 1.5-3.2 0.7-0.5 0.7-0.1 1.1-1 0.3-0.8 0.3-1.4 0.4-2.2 0-0.8 1.2-2.2 0.8-3.6zm-12-30.7c-0.2 0-0.3-0.1-0.5 0 0.2 0.4 0.2 0.1 0.5 0zm-1.8-0.9c-0.2 0.1-0.4 0.2-0.5 0.3 0.4 0.1 0.8 0 1.2 0-0.2 0-0.4 0.2-0.6 0.2 0.5 0 1.7 0 2-0.5h-0.4c0-0.1 0-0.2 0.1-0.3-0.4 0.1-0.3-0.1-0.4 0.4-0.5 0.1-1-0.2-1.4-0.1zm1.8 2c-0.5-0.1-0.6-1.9-1.2-0.5 0-0.6-0.7-0.4-1.2-0.3l0.2-0.2c-0.5-0.1-1.1 0.2-1.5 0.5 0.2 0 0.4 0.1 0.7 0.1-0.2 0-0.4 0.1-0.6 0.1 0.3 0.2 0.8 0.1 1.2 0.2-0.4 0-0.8 0.1-1.2 0.1 0.6 0.8 3 0.6 3.6 0zm-0.2-2.4c0-0.3-0.3-0.1-0.7 0 0.3 0.1 0.5 0 0.7 0zm-2.4 0.5c0.4-0.1 0.9-0.1 1.2-0.5-0.6 0-1.2 0.2-1.8 0.5h0.6zm10.8 9.4c-0.1 0-0.2 0.2-0.3 0l0.1-0.1h-0.4c0.2-0.2 0.3-0.5 0.5-0.7-0.6 0.1-1.2 1.1-1.3 1.6 0.3 0 0.7 0 1 0.1l-0.2 0.2c0.1-0.1 0.4-0.2 0.5-0.3 0 0.1 0 0.2-0.1 0.4 0.4 0 0.5-0.3 0.4-0.7-0.1 0-0.1 0-0.2 0.1 0-0.1 0.1-0.2 0.1-0.3 0.1-0.2 0-0.2-0.1-0.3zm-18.4 0.2c0.7 0.6 0.5-0.1 0.2-0.5-0.5-0.4-0.7 0.1-0.2 0.5zm5.6-7.9c0.8-0.1 1.5-0.7 2.3-0.8-0.9-0.9-1.9 0-2.6 0.5 0.2 0 0.2 0.2 0.3 0.3zm8.1 2.3c-0.8-0.6-0.7-0.5-1.6 0.2 0.1 0 0.4 0.2 0.3 0.2 0.6-0.4 1.2-0.1 1.3-0.4zm-14.4 3.7c-0.2 0.2-0.3 0.4 0 0.7 0.1-0.2 0.2-0.5 0.3-0.7h-0.3zm14.2-3c0.1 0 0.1 0.3 0.2-0.1-0.1 0-0.1 0.1-0.2 0.1zm2.3 5.9c-0.1 0 0-0.3-0.2-0.1 0.3 0.2 0.2 0.2 0.6 0.1-0.1 0.1-0.3 0.1-0.4 0zm-3.1-6c0.2 0 0.3 0.1 0.6-0.2-0.3 0-0.4 0.1-0.6 0.2zm3.8 5c-0.2-0.2-0.3-0.3-0.6-0.3 0.2 0.2 0.4 0.2 0.6 0.3zm-3.5-9.7c0 0.2 0.1 0.2 0 0.5 0.7 0.2 2.2 0.4 2.7-0.2-0.7-0.3-1.4 0.1-2.1-0.2l0.1-0.1c-0.4-0.2-0.8-0.3-1.3-0.1 0.3 0.1 0.4 0.1 0.6 0.1zm-0.2-0.4h0.5c-0.1-0.1-0.4 0-0.5 0zm0.7-0.5h0.4c-0.1 0.1-0.2 0.1-0.3 0.2 0.6 0.4 1.2 0 1.8-0.2-0.5-0.6-1.3-0.6-2-0.2-0.1 0.2 0 0 0.1 0.2zm-1.2 1.4c0.2 0 0.3 0.1 0.5-0.1-0.2-0.1-0.7-0.3-0.5 0.1zm0.7-1c-0.1-0.2-0.1-0.3-0.5 0 0.3 0.1 0.3-0.1 0.5 0zm2.7 1.6h0.5c-0.2-0.3-0.6-0.4-0.9-0.2 0.1 0.3 0.1 0.2 0.4 0.2zm-2.8-0.4c-0.5-0.1-0.9 0.1-1 0.7 0.5-0.1 1-0.3 1.4-0.6-0.2 0-0.3-0.1-0.4-0.1zm4.6 1.3c-0.4-0.3-0.7-0.5-1.2-0.4-0.2-0.6-0.9-0.4-1.3-0.2 0.3-0.8-0.6-0.5-1-0.2 0-0.1 0-0.1-0.1-0.2 0.1-0.1 0.2-0.1 0.3-0.2-0.6 0-1.1 0.2-1.4 0.8h0.3c0 0.1-0.1 0.1-0.2 0.2 0.6 0.3 2.7 0.1 2.5 0.6 0.8 0.1 0.7 0.4 0.2 0.9-0.3 0.3-0.9 0.1-1.3 0.6 0.5 0.2 0.9-0.2 1.4 0.3l-0.1 0.1c0.4 0.3 0.8 0.5 1.2 0.5-0.1-0.2-0.2-0.5-0.4-0.7 1.4 1.5 0.5-0.9 0.4-0.7 0.3-0.6 0.9 0.8 1.6-0.4-0.5-0.1-0.8-0.5-1.3-0.6 0.2-0.1 0.3-0.1 0.5-0.2 0 0-0.1-0.1-0.1-0.2zm-5.8-2.6c0.2 0.1 0.4 0.1 0.6 0.1-0.1-0.4-0.5-0.5-0.9-0.3 0.1 0 0.1 0 0.2 0.1-0.1 0-0.2 0.1-0.3 0.1h0.4zm3.3-0.7c0.5 0.1 0.9 0.1 1.4 0.1-0.3 0.1-0.7 0.1-1 0.1 0.1 0.2 0 0.1 0.2 0.3-0.2 0.1-0.5 0.2-0.8 0.3 0.2 0.1 0.3 0.2 0.4 0.3-0.4-0.2-0.8 0-1.1 0.3 0.7 0.1 1.9 0.3 2.5-0.2h-0.4c0.4-0.3 1-0.4 1.2-0.7h-0.3c0.9 0 1.8-0.4 2.7-0.6h-0.4c0.4-0.1 0.9-0.1 1.3-0.3-1.6-0.4-4.4-0.4-5.9 0.3 0.1-0.1 0.1 0 0.2 0.1zm0.5 4.2c-0.2-0.3-0.3-0.3-0.5 0.2 0.3 0 0.4-0.1 0.5-0.2zm-5.1-3.6c-0.2 0-0.4-0.1-0.6 0.1 0.2 0 0.4-0.1 0.6-0.1zm0.6 2.8c-0.2 0-0.4 0-0.7 0.2 0.3 0.2 0.6 0.2 0.9 0.1 0-0.3-0.1-0.2-0.2-0.3zm-0.6-0.9c0.4 0.5 0.9 0.5 1.3 0-0.1 0-0.2-0.1-0.2-0.1 0.2-0.1 0.2-0.1 0.3-0.3-0.4 0-0.9-0.1-0.9 0.3-0.2 0-0.3 0.1-0.5 0.1zm0.9-0.8c0.4 0.2 0.9-0.1 0.9-0.5-0.4 0-0.8 0-1.1 0.4 0.4-0.2 0.2 0.1 0.2 0.1zm52.8 21c-0.7 0.3-0.2 0.9 0 0.7 0.3-0.4 0.3-0.6 0-0.7zm-53.4 0.1c0.2 0 0.3 0 0.4-0.2-0.8-0.5-2-1.9-3-0.7 0.3-0.1 0.6-0.2 0.9-0.3l-0.1 0.1c0.6 0.3 1 0.3 1.4 0.8-0.1 0.1-0.1 0.2-0.2 0.2 0.2 0 0.4 0.1 0.6 0.1zm31-6.3c-0.1 0.1-0.2 0.1-0.4 0.1 0.4 0.2 0.3 0.1 0.6-0.2 0 0-0.1 0-0.2 0.1zm-6.2-7.7c0.1-0.4 0.2-0.6-0.3-0.4 0 0.3 0.1 0.3 0.3 0.4zm-0.6 5.3c0-0.3 0.1-0.4 0-0.7-0.3 0.3-0.1 0.4 0 0.7zm-3.8-5.5c0.1-0.1 0.1-0.3 0.2-0.1 0 0.1 0.4 0.4 0.4 0.6 0 0.4-0.6-0.1-0.3 0.6-0.1 0-0.2 0.1-0.3 0.1 0.1 0 0.3 0.2 0.5 0.2-0.2 0.1-0.4 0.3-0.6 0.5 0.7 0 1.9 0 1.9-1-0.6-0.2-0.6-1-1.2-1.2 0.2-0.2 0.2-0.5 0.3-0.6h-0.5c0.1-0.1 0.2-0.3 0.3-0.4-0.8-0.1-0.9 0.7-0.7 1.3zm8.2 7.9c-0.2 0-0.2 0.1-0.4-0.1v0.2c0.3 0.1 0.5 0.2 0.8 0-0.2-0.1-0.2-0.1-0.4-0.1zm-11.8-13.2h-0.9c0-0.1 0.2-0.4 0.2-0.4 0.3 0.3 0.4 0.3 0.8 0.3-0.2-0.3-0.2-0.4-0.6-0.6h0.5c-0.1-0.1 0-0.2-0.2-0.4 0.3 0 0.5-0.1 0.7-0.2h-0.1 0.5c-0.1-0.1-0.2-0.2-0.2-0.3 0.3-0.2 0.3-0.2-0.1-0.5 0.2 0 0.5-0.1 0.7-0.1-0.3-0.4-0.2-0.7 0.3-0.9h-0.5c0.5 0 1-0.2 1.6-0.3-0.6-0.3-1.5-0.1-2.1 0 0.1-0.1 0.2-0.1 0.2-0.2-0.6-0.1-1.3-0.1-1.9-0.1 0.7 0 1.5 0.1 2.2-0.1-1.4-0.2-3.8-0.7-5 0.1 0.1 0 0.3 0.1 0.4 0.1-1.6-0.3-3.3-0.2-4.8 0.4 0.2 0 0.3 0.1 0.5 0.1-0.6 0.3-1.4 0.1-1.9 0.5 0.4 0.1 0.8 0.2 1.2 0.2-0.3 0-0.7 0-1 0.1 0.2 0.2 4.1 0.7 2.5 1.7 0.3 0.1 0.5 0.2 0.8 0.4-0.9-0.5-1 0.9 0 0.2-0.6 1-1.2 0.7-0.8 2.1 0.2 0.7 0.5 0.9 0.9 1.1 0.7 0.4 0.6 0.2 1.1-0.4 0.1-0.1 0.4-0.9 0.6-1.1 0.4-0.3 0.8-0.2 1.1-0.4 1.1-0.4 2.2-0.7 3.3-1.3zm-16.2 20.1c0.3 0.1 0.4-0.1 0.6 0.3 0.2-0.4 0.6-0.3 0.9-0.4-0.3-0.4-0.9-0.7-1.4-0.4 0.2 0.2 0.1 0.2 0.3 0.4-0.2 0-0.3 0.1-0.6 0-0.1 0.3 0 0.1 0.2 0.1zm55.5 10.9c0.1 0 0.2-0.1 0.3-0.1-0.1-0.2-0.4-0.2-0.6 0.2 0.1 0 0.2-0.1 0.3-0.1zm1.7-1.7c-0.2-0.4-0.3-0.7-0.5-1.1 0.2-0.1 0.3-0.3 0.5-0.3v-0.2c-0.4 0.2-1.4 0.1-0.8-0.4 0.5-0.4 1.2 0.5 1.3-0.5-0.4 0.6-0.9 0-1.3 0.2-0.3 0.2-0.5 1.1-0.5 1.5 0 0 0.3 1.2 0.2 1.2 0.4 0.2 0.2-0.9 0.4-1.2 0 0.4 0.1 0.6 0.2 0.9 0.1-0.1 0.2-0.1 0.3-0.2-0.1 0.3 0 0.3 0 0.5 0.2-0.1 0.1-0.2 0.2-0.4zm-4-1.3c0.1 0.8 1.5 1.1 1.9 1.1 0.1-0.7 0.3-1.8 0.9-2-0.6-0.8-0.4-1.3 0-1.8-0.4-0.2-0.5-0.6-0.8-0.5s-0.6 0.9-0.8 1.1c-0.6 0.7-1.8 0.8-1.2 2.1zm7.3 1.8c-0.1 0.1-0.2 0-0.2 0.5 0.2-0.2 0.1-0.4 0.2-0.5zm-2.2-1.1h-0.3c0.3 0.5 0.2 0.1 0.3 0zm-2 2.9c-0.1-0.2-0.1-0.4-0.5-0.3 0.2 0.2 0.3 0.2 0.5 0.3zm0.7-0.7c-0.1-0.2-0.5-0.1-0.8 0.1 0.2 0.1 0.5 0 0.8-0.1zm-3.6-0.2c0.5 0.1 1 0.2 1.5 0.1-0.6-0.3-2.6-1.5-3-0.6 0.5 0.2 1 0.3 1.5 0.5zm-1.3-1.5c0.3-1-2-4.1-3.1-3.9 0.4 0.9 1 1.6 1.5 2.5 0.2 0.3 1.7 3.2 1.6 1.4zm6.8-0.4c0.2 0.1 0.3 0 0.5 0.2-0.2-0.5-0.6-0.6-0.9-0.2h0.4zm-0.3-1c0.1-0.4 0.3-0.8-0.1-1.2-0.1 0.4-0.1 0.8 0.1 1.2zm-1.2 3.7c0.2-0.3 0.6-0.5 0.9-0.7-0.5 0-1 0.2-1.2 0.8 0.1 0 0.2 0 0.3-0.1zm-38.6-25.2c-0.1 0.1-0.1 0.3-0.2 0.4 0.4 0.1 1.4-0.5 1.1-1-0.3-0.7-1 0-0.9 0.6zm-2.3-4c0.5 0.1 1.1-0.1 1.5-0.5 0-0.1-0.2-0.4-0.2-0.5-0.6 0.1-1.9-0.2-2.3 0.3 0.2 0 0.3 0.1 0.5 0.1-0.1 0-0.2 0.1-0.4 0.2 0.2 0.1 0.3 0.1 0.5 0.2-0.1 0.1-0.2 0.1-0.2 0.2 0.2-0.1 0.4-0.1 0.6 0zm6.9 8.9c0.1 1.7 0.3-1.3 0 0zm1.8 0.9c-0.2 0-0.4 0.1-0.6 0 0.1 0.3 0.4 0.5 0.7 0.6 0.1-0.5 0-0.5-0.1-0.6zm-26.4 7.9c-0.1 0.1-0.2-0.1-0.2 0.1 0.3 0.2 0.3 0.2 0.6 0.1-0.1-0.2-0.2-0.1-0.4-0.2zm45.9 3.7-0.2-0.2c-0.5 1.9 1.1 1.5 0.2 0.2zm-9 9.2c0-0.2-0.1-0.4-0.2-0.6-0.1 0.3-0.3 0.5-0.4 0.7-0.1 0.8-0.9 0.8-1.1 1.4-0.2 0.4 0.1 0.7 0 1.1s-0.3 0.6-0.4 1c-0.1 1.2 0.5 1.5 1.1 0.7 0.5-0.7 0.9-2.6 0.9-3.5 0 0.1 0.1 0.2 0.1 0.2 0.1-0.3 0-0.6 0-1zm13.3-12.1c-0.9 0.8-1-2.4-2-2.6v0.4c-0.3-0.1-0.5 0-0.9 0.1 0.1 0.9-1.3 1.5-1.5 2.2-0.2 0.6-0.2 2.1-0.3 2.7-0.1 0.1-0.3 0.4-0.5 0.5-1-1.2-1.5-3.8-1.8-5.4-0.6 0.6-1.1-0.6-1.6-1-0.5-0.5-0.4-0.4-1.1-0.5-0.5-0.1-0.9 0.1-1.3-0.1s-0.5-0.6-0.8-0.7-0.5 0.2-1 0c-0.7-0.3-0.8-1.5-1.5-1.1 0.1 0.9 0.8 1.3 1 2.1 0-0.2 0.1-0.4 0.1-0.5 0.1 1.3 1 0.8 1.4-0.1-0.1 0.9 0.5 0.7 0.8 1.1 0.4 0.8 0.2 0.6-0.1 1.2-0.4 1-0.6 1.2-1.5 1.7-0.6 0.4-2 1.9-2.6 1.1-0.3-0.4-0.1-0.9-0.2-1.3-0.2-0.5-0.7-1-0.9-1.4-0.4-0.8-1.8-3-1.6-3.7 0 0.3-0.2 0.5-0.2 0.7-0.2-0.3-0.4-0.5-0.5-0.9 0.1 0.8 0.6 1.5 0.9 2.2s0.4 1.4 0.7 2.1 2 2.5 1.7 3c0.5 0.9 1.8 0.2 2.4-0.1 0.1 3.4-3.7 4.9-3.4 7.8 0.1 1.4 0.7 2.7-0.3 3.9-0.7 0.8-1 0.7-1.1 1.7 0 0.5 0.2 0.8-0.1 1.3-0.1 0.2-0.6 0.3-0.7 0.5 0 0.1 0 0.5-0.1 0.7-0.2 0.5-0.5 1.1-0.9 1.5-0.5 0.6-0.9 0.8-1.4 1-0.2 0.1-1.4 0.4-1.5 0.4-0.6-0.2-0.2-0.7-0.3-1.2-0.2-0.8-0.6-1.4-0.8-2.2-0.2-0.9-0.2-1.6-0.5-2.5-0.3-0.8-0.5-1.3-0.2-2.2 0.3-1.4 0.5-2.2 0.1-3.5-0.3-1-0.9-1.5-0.9-2.5 0-0.8 0.3-1.3-0.2-1.9-0.9 0.6-1.1-0.8-2.2-0.5-0.7 0.2-1.9 0.8-2.6 0.6-1.5-0.3-2.2-3.1-2.8-4.2 0.8-0.8 0.2-2.2 0.4-3 0.1-0.4 0.4-1.2 0.6-1.5 0.4-0.6 0.9-0.7 1.2-1.3 0.5-0.8 0.3-1.3 1-2 0.8-0.9 0.3-0.3 1.4-0.5 0.9-0.1 2.7-1.4 3.4-0.6 0.1 0 0.2-0.1 0.2-0.1-0.2 0.8-0.3 1.2 0.3 1.7 0.5 0.4 1.7 1.1 2.2 0.8 0.1 0 0-0.6 0.5-0.7 0.2-0.1 0.7 0.4 0.9 0.5 0.5 0.2 1.7-0.1 1.9 0.3 0.9 0.2 1-1.5 1-2.3-0.6 0-1.4 0.3-1.9 0.1-1.2-0.5-0.9-1.5 0-1.9 0.4-0.2 1.1-0.3 1.6-0.3 0.4 0 1 0.7 1.4 0.3 0.6-0.6-0.9-1.3-1.3-1.6 0.3-0.4 0.2-0.2 0.2-0.5 0.1-0.1 0.2-0.1 0.4-0.2-0.4-0.1-1.6 0.5-0.6 0.6-0.4 0.4-0.8 0.5-1.1 0.1 0.1-0.1 0.2-0.1 0.3-0.2-1-0.9-1.9 1.4-1 1.8-0.2 0.1-0.5 0.3-0.7 0.5-0.2-0.4-0.3-0.3-0.7-0.2l0.2 0.2c-0.3-0.1-0.2 0.1-0.4-0.1 0 0.5 0.2 0.7 0.4 1.1-0.1 0-0.2-0.1-0.3-0.1 0.1 0.2 0.1 0.2-0.1 0.2 0 0.1 0.1 0.2 0.1 0.4-1 0-1-1.6-1.3-2.1s-1.4-1.3-1.6-1.2c-0.1-0.2 0-0.2 0-0.3-1.3 0 1.2 2 1.3 2.3-0.7-0.5-0.1 0.3-0.7 0.8 0.3-1-0.8-1.3-1.3-1.8-0.6-0.6-0.2-0.5-0.9-0.6-0.5-0.1-1.1 0.5-1.3 0.7-0.8 0.6-0.7 1.7-1.5 2.2s-1.1-0.4-1.8-0.1c-0.1-0.5-0.2-2.3 0.1-2.6 0.4-0.5 1.5 0.4 1.9-0.1 0.7-0.8-0.5-1.5-0.8-2 0.3 0 0.5-0.1 0.8 0 0-0.1-0.1-0.3-0.1-0.4 0.5 0.3 0.9-0.3 1.2-0.6s0.8-0.7 1-0.9c0.1-0.2 0.3 0.2 0.4-0.1 0 0-0.1-0.3-0.1-0.4 0.2-0.4-0.2-0.8 0.5-1 0 0.1 0.1 0.4 0.1 0.5-1.1 0.9 1.1 0.8 1.5 0.7 0.6-0.1 0.7 0.1 1.1-0.3 0.2-0.2-0.2-1.4 0.7-0.6v-0.5c-0.2-0.1-0.1-0.1-0.3-0.3 0.5-0.2 0.9 0 1.3-0.3-0.6-0.4-1.5 0.5-1.9-0.3-0.4-0.7 0.2-1.2 0.8-1.5-0.5-0.8-0.9 0.1-1.2 0.5-0.7 0.9-0.3 0.8-0.4 1.8 0 0.2-0.6 1.4-0.9 1.3-0.4-0.1-0.7-1.2-1-1.4-0.3-0.1-1.5 0.8-1.2-0.8 0.1-0.6 1.1-1 1.6-1.5 1-1.1 2.6-2.5 4.1-1.6-0.1 0-0.2 0.1-0.3 0.1 0.4 0.2 2.3 0.3 2.6 0.9 0.4 1-1.2 0.3-1.6 0.4 0.5 0.3 0.5 0.9 1.1 1-0.1-0.1-0.1-0.2-0.2-0.3h0.9c-0.1-0.1-0.1-0.2-0.2-0.3 0.3-0.3 0.6-0.4 0.9-0.2 0-0.3-0.1-0.6-0.3-0.9 0.4 0 0.6 0.1 0.8 0.3h-0.3c0.4 0.6 1.1-0.3 1.9-0.4l-0.2 0.2c0.5 0 1.2-0.1 1.6-0.3-0.1-0.1-0.2-0.1-0.3-0.2 0.6-0.2 1.5 0.2 2.1 0.5 0-0.1 0.1-0.1 0.1-0.2-0.7-0.3-1.2-1.5-0.2-1.4 0.5 0 1.4 1.7 1 2.2 0.4 0 0.5-0.1 0.6-0.5-0.4-0.4-0.6-0.8-1-1.2 0.1-0.1 0.2-0.1 0.3-0.2-0.1-0.1-0.1-0.2-0.2-0.2l0.6 0.6c-0.1-0.1-0.1-0.2-0.2-0.2 0.4-0.2 0.8-0.2 1.2 0-0.3-0.2-0.3-0.4-0.5-0.6 0.4-0.1 0.9-0.1 1.3-0.1-0.1-0.1-0.2-0.1-0.3-0.2 0.6-0.7 1.8-0.5 2.7-0.6 0.1-0.4 0.5-0.5 0.9-0.3 0.2-0.4 0.1-0.4 0-0.4 0.7 0.2 1.8-0.1 2.3 0.6-0.2 0.1-0.5 0.3-0.7 0.4 1.1 0.1 2.1 0.5 3.2 0.4-0.1-0.1-0.1-0.2-0.2-0.2 1.1 0 1.5 0.7 2.5 1 0-0.1-0.1-0.2-0.1-0.4 0.6 0.2 1.2 0.1 1.8 0.1-0.1-0.1-0.3-0.2-0.4-0.3 0.5-0.3 1.7-0.1 2.3 0.1 0.7 0.2 1.4 0.2 2.1 0.4 1.1 0.2 2.5 0.9 3.6 0.7-0.2-0.1-0.3-0.2-0.5-0.4 1.8 0.3 2.5 0.3 3.9 1.8-0.2 0-0.2 0.1-0.5 0.1 0.4 0.2 0.9 0.4 1.2 0.8-0.6-0.2-1.3 0.2-1.3 0.9-0.5-0.4-1.1 0-1.6 0 0 0.9 0.6 0.7 1 1.4h-0.2c0.1 0.2 0.2 0.3 0.3 0.5-0.1 0.1-0.2 0.1-0.3 0.2 0.1 0.1 0.1 0.3 0.2 0.4-0.1 0-0.2 0.1-0.3 0.1 0.2 0.4 0 0.4 0 0.7-0.7-0.7-1.6-1.6-1.8-2.6 0.5-0.2 1-1.7 0.2-1.7 0.2 1-0.4 0.2-0.7 0.3-0.4 0.2-1.1 0.3-0.3 0.9-0.6 0.3-1.3-0.1-2 0-1.2 0.1-1.2 0.4-1.8 1.7 1.2 0.2 2.2 0.4 2.5 2.1 0.1 0.6 0.1 1.6-0.2 2.1-0.4 0.5-0.6 0.3-0.9 0.6l-0.4 0.9c0.1 0.5 0.3 0.4 0.6 0.9 1.1 1.9-0.9 1.2-0.5 0.3-0.2-0.2-0.7-0.8-0.7-0.8-0.4-0.2-0.5-0.6-1.1 0 0.4-1.3-0.9-0.4-0.9 0 0 0.9 1.3 0.4 1.6 0.8-1.4 0.4 0.5 2.1 0.6 2.8 0.2 1.5-0.7 2.5-1.6 3.1-0.3 0.2-0.4 0.3-0.8 0.4-0.1 0 0.1 0.4-0.1 0.4-0.1 0-0.2-0.3-0.2-0.3-0.1 0-1-0.5-1 0.7 0 0.8 1.1 1.3 1.3 2.1 0.2 1.1-0.4 1.4-1 2.1 0-0.5-0.9-1.6-1.4-1.6v-0.3h-0.3c0 0.6-0.1 1.2 0 1.7 0.1 0.4 0.5 0.7 0.7 1.1 0.4 0.8 0.5 1.3 0.8 2.1-1.2-0.2-1.1-2-1.8-2.8v0.2c0.1-0.5 0-3.8-0.7-3.4zm-20.7 3.3-0.2-0.2c0.1 0.1 0.1 0.2 0.2 0.2zm7.6-11.7c-0.1-0.7-0.4-0.9-0.5-1.5 0.3 0.1 0.3 0 0.5 0-0.2-0.4-0.5-0.6-0.5-0.1-0.1-0.7-0.6-0.8-0.9-1.4h0.3c0.2-0.4-0.1-0.3 0.4-0.3 0.1-1-1-0.7-1.3-0.2-0.5 0.8 0.2 1.8 0.8 2.3-0.9 0.6 0.4 1.9 1.2 1.2zm-10.8-15.5c0.4 0.2 1 0.2 1.5-0.1-0.6-0.2-1.4-0.2-2-0.1 0.2 0.2 0.3 0.2 0.5 0.2zm0.6 0.8c0.1 0 0.3-0.1 0.4-0.1-0.3-0.1-0.5-0.1-0.8-0.1 0.1 0.3 0.1-0.1 0 0.2 0.2-0.1 0.3-0.1 0.4 0zm-1.9-0.2c0.1 0 0.2 0.1 0.3 0.1-0.1 0-0.1 0.1-0.2 0.1 0.7 0.5 0.8-0.4 1.5-0.5-0.9-0.3-1.4-0.2-2.2-0.2 0.2 0.2 0.4 0.4 0.6 0.5zm-22 22.5c0.1 0.1 0 0.4 0.4 0.1-0.1-0.1-0.2-0.1-0.4-0.1zm28.5-23.2c0.3 0.1 0.6 0 0.9-0.1h-1.3c0.3 0 0.5 0.2 0.4 0.1zm2.1 2.8c0.4 0.2 0.9 0.4 1.4 0.3-2-0.4 1.3-1.7 1.6-1.9-0.7-0.3-1.8 0.1-2.5 0.5-0.1 0.2 0 0.1-0.3 0.4h0.2c-0.4 0.2-0.4 0.4-0.4 0.7zm7.4-2.5c0.5 0.1 1 0.2 1.5 0.2-0.4-0.6-1.5-0.9-2.1-0.4 0.2-0.1 0.3 0.1 0.6 0.2zm10.6 1.4c0.3-0.1 0.7-0.1 1.1-0.1-0.3-0.5-1.3-0.5-1.8-0.4 0.2 0.4 0.4 0.5 0.7 0.5zm-8.1-1.2c-0.5-0.2-0.9-0.4-1 0.2 0.4 0 0.9 0 1-0.2zm9 1.5c-0.2 0.1-0.2 0-0.3 0.2 0.3 0.1 0.6 0.1 0.8 0.1-0.1-0.2-0.3-0.3-0.5-0.3zm-71.6 3zm2.7-2.1c-0.2-0.1-0.3-0.2-0.6 0.1 0.2 0 0.4-0.1 0.6-0.1zm74.6 6.9c0.6 0.5 0.9 1.6 1.4 2.3v-0.3c0.1 0.1 0.2 0.2 0.3 0.2-0.3-0.4-0.7-0.7-0.7-1.2 0.2 0 0.3 0.1 0.5 0.1-0.6-0.6-1.2-1.8-1.8-2 0.1 0.3 0.2 0.4 0.3 0.9zm-76.8-5.1s0.3 0.1 0.5 0.1c0.1 0.8 1.1-0.1 1.7-0.2-0.2-0.5-0.7-0.4-1-0.2 0.1-0.1 0.2-0.1 0.2-0.2-0.5-1.3-1.3 0.2-1.9 0.8 0.2-0.2 0.7-0.7 0.5-0.3zm72.1-3c0.2 0 0.3 0.1 0.5-0.1-0.3-0.1-0.7-0.1-1.1-0.1 0.2 0.1 0.3 0.1 0.6 0.2zm8.2 1.3c-0.1-0.1-0.2-0.2-0.3-0.2l-0.1 0.1c0.2 0.1 0.3 0 0.4 0.1zm-57.3 23.5s0.1 0.3 0.2-0.2c-0.1-0.1-0.2 0.2-0.2 0.2zm-21.4-20.9c-0.3-0.1-0.4-0.2-0.7 0 0.2 0.1 0.4 0 0.7 0zm2.1 1.9c-0.3 0.1-0.5 0.1-0.5 0.5 0.2-0.1 0.5-0.2 0.7-0.3-0.1-0.3-0.1-0.1-0.2-0.2zm-2.8-0.8c0.2 0 0.3 0.3 0.4 0-0.1-0.1-0.3 0-0.4 0z">
<animateTransform attributeName="transform" dur="2s" keyTimes="0;1" repeatCount="indefinite" type="translate" values="0 0;100 0"/>
</path>
</g>
</svg>
